<svg preserveAspectRatio="xMidYMid meet" width="34" height="34" overflow="visible" style="display: block;" viewBox="0 0 34 34" fill="none" xmlns="http://www.w3.org/2000/svg">
<g id="home-1" clip-path="url(#clip0_home)">
<path d="M1.29314 14.6781C1.11628 14.6781 0.939308 14.6403 0.762225 14.5646C0.585142 14.4886 0.433403 14.3621 0.30701 14.185C0.0794581 13.9323 -0.0217008 13.6415 0.00353358 13.3128C0.0542237 12.9588 0.205962 12.6807 0.458748 12.4784L14.7577 0.720508C15.4658 0.240169 16.237 0 17.0713 0C17.9058 0 18.6391 0.240169 19.2713 0.720508L33.5699 12.3645C33.8229 12.5668 33.962 12.8323 33.9873 13.1611C34.0377 13.515 33.9366 13.8185 33.6838 14.0715C33.431 14.3243 33.1529 14.4633 32.8494 14.4885C32.5459 14.5392 32.2678 14.438 32.015 14.185L17.7921 2.76881C17.5898 2.66765 17.3495 2.61707 17.0713 2.61707C16.7932 2.61707 16.5531 2.66765 16.3508 2.76881L2.01398 14.4507C1.88737 14.5518 1.76717 14.615 1.6534 14.6403C1.53962 14.6655 1.41954 14.6781 1.29314 14.6781ZM28.6014 31.6698H20.7123C20.3331 31.6698 20.0424 31.556 19.8401 31.3285C19.6125 31.1264 19.4987 30.8356 19.4987 30.4562V24.7669C19.4735 24.3118 19.1828 23.9199 18.6265 23.5912C18.0955 23.2624 17.5391 23.0855 16.9574 23.0602C16.3759 23.0602 15.8323 23.2246 15.3268 23.5533C14.821 23.8568 14.5555 24.2613 14.5302 24.7669V30.4562C14.5302 30.8356 14.4165 31.1264 14.1889 31.3285C13.9614 31.556 13.6705 31.6698 13.3163 31.6698H5.65504C4.74461 31.6446 3.99864 31.3538 3.41715 30.7976C2.83565 30.2161 2.53228 29.4954 2.50705 28.6357V17.1056C2.50705 16.7262 2.62083 16.4354 2.84838 16.2333C3.0507 16.0058 3.34144 15.892 3.72062 15.892C4.0998 15.892 4.39055 16.0058 4.59287 16.2333C4.82042 16.4354 4.9342 16.7262 4.9342 17.1056V28.6357C4.9342 28.8128 4.9975 28.9645 5.12412 29.0909C5.25051 29.1921 5.42749 29.2427 5.65504 29.2427H12.2166V24.7669C12.2671 23.528 12.7854 22.5292 13.7715 21.7706C14.7577 21.0375 15.8576 20.6582 17.0713 20.6328C18.285 20.6582 19.3975 21.0375 20.4088 21.7706C21.4457 22.5292 21.9893 23.528 22.0398 24.7669V29.2427H28.7153C28.9176 29.2679 29.0693 29.2425 29.1705 29.1666C29.2716 29.0909 29.3222 28.876 29.3222 28.5218V17.1056C29.3222 16.7262 29.436 16.4354 29.6636 16.2333C29.8911 16.0058 30.1819 15.892 30.5358 15.892C30.915 15.892 31.2057 16.0058 31.408 16.2333C31.6356 16.4354 31.7494 16.7262 31.7494 17.1056V28.6357C31.6737 29.5459 31.3577 30.2791 30.8014 30.8354C30.2449 31.3664 29.5116 31.6446 28.6014 31.6698Z" fill="#ffffff"/>
</g>
<defs>
<clipPath id="clip0_home">
<rect width="34" height="34" fill="white"/>
</clipPath>
</defs>
</svg>
